<svg width="282" height="52" viewBox="0 0 282 52" fill="none" xmlns="http://www.w3.org/2000/svg"><path d="M26.5931 48.6164C26.3755 48.5622 26.1308 48.5352 25.8589 48.4539C25.6414 48.3998 25.4238 48.3457 25.2335 48.2374C24.7441 48.0208 24.309 47.7231 23.9555 47.3441C23.5748 46.9922 23.2485 46.5591 23.0038 46.126C22.8135 45.747 22.7319 45.3681 22.7319 44.962C22.7319 43.8251 23.3845 42.5258 24.6897 41.0099C26.4299 38.9526 29.2306 36.7059 33.0918 34.3238C34.0978 33.7012 34.7232 33.214 34.9408 32.8891C35.0495 32.6996 35.3486 32.1041 35.8109 31.1026C36.2731 30.101 36.7898 28.937 37.388 27.5836C38.7203 24.5518 40.0799 21.5471 41.4667 18.5695C42.8262 15.619 43.9682 13.2098 44.8927 11.3962C45.2734 10.6382 45.5997 9.96149 45.8988 9.36597C46.1979 8.77045 46.3883 8.39148 46.4426 8.22906C46.5242 8.06665 46.5786 7.87716 46.5786 7.71475C46.6058 7.55233 46.497 7.38992 46.3067 7.30871C46.1435 7.25457 45.9804 7.25457 45.8172 7.25457C45.2462 7.28164 44.6752 7.33578 44.1314 7.47112C38.0406 8.60803 31.8682 10.6382 25.5598 13.6158C19.2786 16.5935 13.8132 20.0583 9.21788 23.9834C8.34776 24.6872 7.53202 25.4722 6.82505 26.3113C6.41718 26.7986 6.14527 27.3399 6.0365 27.9355C5.95493 28.4768 5.84616 28.8017 5.65583 28.91C5.49268 29.0182 5.30234 29.0724 5.08481 29.0724C4.75852 29.0724 4.43222 28.937 4.1875 28.7475C3.69806 28.3415 3.42615 27.746 3.45334 27.1505C3.45334 26.0406 4.86728 24.2811 7.72236 21.872C13.079 17.4055 19.1699 13.6429 25.7773 10.7194C32.6023 7.66061 39.3729 5.63042 46.062 4.65592C47.8838 4.4123 49.7328 4.30402 51.5546 4.33109C53.1861 4.30402 54.8447 4.4123 56.449 4.65592C59.5216 5.22438 61.9416 6.28008 63.7634 7.79595C65.6124 9.39304 66.6457 10.8548 66.8089 12.2082C66.9992 13.5346 67.0808 14.4821 67.0808 15.0234C67.0808 16.6205 66.7545 18.2176 66.1563 19.7064C65.6668 20.8704 65.0686 22.0073 64.3888 23.1171C63.5731 24.4977 62.7574 25.7158 61.996 26.7715C58.8146 30.8319 55.0351 34.5404 50.7932 37.7887C46.633 41.0911 42.0105 43.9334 37.0617 46.2343C33.3093 47.8855 30.2095 48.7246 27.7623 48.7246C27.3544 48.6705 26.9737 48.6434 26.5931 48.6164ZM29.3394 46.0448C34.1794 44.9079 39.9711 41.9303 46.7689 37.0849C47.5575 36.5164 48.6179 35.6773 49.9775 34.5404C51.3371 33.4035 52.615 32.3207 53.8387 31.2379C55.0623 30.1551 55.878 29.3972 56.2859 28.9641C56.449 28.7746 56.585 28.5851 56.7209 28.3686C56.8025 28.2603 56.8569 28.125 56.8569 27.9896V27.9625C56.8025 27.8272 56.6122 27.746 56.2587 27.746C55.742 27.746 54.8991 27.9084 53.7027 28.2332C51.7177 28.7746 49.0258 29.695 45.5997 31.0484C44.077 31.671 42.5815 32.2936 41.1404 32.9433C40.1343 33.3764 39.1826 33.8366 38.2309 34.3779C37.9046 34.5674 37.5783 34.9464 37.3064 35.4878C37.0073 36.0562 36.5994 37.0307 36.0556 38.4113C35.4302 40.0083 34.9951 40.9287 34.7504 41.1723C34.5873 41.3077 34.3697 41.4159 34.125 41.443C33.9347 41.443 33.7987 41.4701 33.7172 41.4701C33.5268 41.4701 33.3093 41.4159 33.1461 41.3077C32.8742 41.1453 32.6567 40.8746 32.6023 40.5768C32.5479 40.3602 32.5207 40.1708 32.5207 39.9542C32.5207 39.6023 32.5751 39.2775 32.7111 38.9526C32.7655 38.7902 32.7655 38.6278 32.7927 38.4654C32.7927 38.1947 32.7111 38.0594 32.5207 38.0594C32.2216 38.1135 31.9225 38.2218 31.6778 38.3842C30.8349 38.9797 30.0463 39.6294 29.285 40.3061C28.4964 40.9828 27.7351 41.7137 27.0281 42.4716C25.8317 43.8522 25.2335 44.8808 25.2335 45.5575C25.2335 45.7741 25.3151 45.9906 25.4782 46.1531C25.6686 46.3155 26.0764 46.3967 26.6746 46.3967H26.8922C27.7079 46.3425 28.5508 46.2343 29.3394 46.0448ZM43.0981 29.4243C48.1285 27.3941 52.044 26.1218 54.8447 25.5534C55.3342 25.4451 55.8236 25.3639 56.3402 25.3097C56.6393 25.2827 56.9113 25.2827 57.156 25.2827C57.4007 25.2827 57.6454 25.2827 57.8901 25.3097L59.2225 25.391L59.7935 24.9037C60.4189 24.3082 61.1531 23.3066 62.0232 21.9261C62.8389 20.6268 63.5731 19.3004 64.1713 17.9198C64.8511 16.2957 65.2046 14.834 65.2046 13.5617C65.2046 12.2082 64.7967 11.0984 64.0082 10.178C62.4311 8.44562 59.6032 7.33578 55.5245 6.84853C54.7903 6.76732 54.029 6.71319 53.2948 6.68612C52.7238 6.68612 52.3703 6.65905 52.2344 6.65905C51.6905 6.63198 51.1739 6.68612 50.6301 6.79439C50.4941 6.82146 50.3854 6.8756 50.3038 6.95681C50.195 7.06509 50.1406 7.17336 50.1135 7.30871C50.0591 7.47112 50.0047 7.71475 49.9231 8.03958C49.8415 8.33734 49.7328 8.6351 49.5968 8.90579C49.4065 9.31183 49.189 9.77201 48.917 10.2322C48.2916 11.3962 47.4487 13.0203 46.4698 15.0776C45.4638 17.1348 44.4577 19.2733 43.4244 21.493C42.3912 23.7127 41.521 25.6346 40.8141 27.2587C40.1071 28.8829 39.7264 29.8032 39.7264 29.9927V30.0739C39.7264 30.3717 39.8352 30.5341 40.0799 30.5341C40.4062 30.4529 40.7053 30.3176 41.0044 30.2093C41.6026 30.0198 42.3096 29.7491 43.0981 29.4243Z" fill="white"></path><path d="M59.8479 38.1406C59.6575 38.0052 59.4944 37.8428 59.3856 37.6533C59.304 37.4638 59.2769 37.2744 59.2769 37.0849C59.304 36.6247 59.4672 36.1916 59.7119 35.7856C60.3101 34.8111 60.9627 33.8366 61.6969 32.9162C62.6214 31.6981 63.5187 30.5612 64.4432 29.4784C65.0142 28.7476 65.6668 28.0438 66.3466 27.3941C66.6729 27.1775 67.0535 27.0422 67.4886 27.0151C67.6517 27.0151 67.7877 27.0422 67.9509 27.0693C68.4675 27.2317 68.7394 27.5836 68.7394 28.152C68.7394 28.3957 68.6578 28.6393 68.5491 28.8288C68.3315 29.1807 68.0868 29.5326 67.8149 29.8574C67.1895 30.6424 66.8632 31.1567 66.8632 31.3462C66.8632 31.4003 66.8904 31.4274 66.9448 31.4274H66.972H67.0807C67.3526 31.3191 67.5974 31.1838 67.8693 31.0214C68.3043 30.7777 68.8482 30.48 69.4736 30.101C71.3498 28.9912 72.6821 28.3415 73.4435 28.0979C73.9873 27.9084 74.5583 27.7731 75.1293 27.746C75.5372 27.746 75.9451 27.8543 76.2714 28.0438C76.6249 28.2062 76.924 28.4769 77.1143 28.8017C77.2503 29.0995 77.3046 29.4243 77.3046 29.7491C77.3046 29.9115 77.3046 30.0739 77.2774 30.2364C77.2503 30.3988 77.2503 30.5341 77.2503 30.6965C77.2503 30.9943 77.3046 31.1567 77.4406 31.2109C77.495 31.2379 77.5494 31.2379 77.6309 31.2379C77.9572 31.1838 78.2835 31.0755 78.5826 30.9402C79.1808 30.6424 79.8334 30.4529 80.5404 30.4258C80.7851 30.4258 81.057 30.4529 81.2745 30.5612C81.6008 30.6965 81.8728 30.9131 82.0903 31.1567C82.3078 31.3733 82.4166 31.644 82.4438 31.9417C82.4166 32.1041 82.3622 32.2666 82.2534 32.429C82.1447 32.6726 81.9815 32.9162 81.8184 33.214C81.3561 33.9178 81.1114 34.4321 81.1114 34.8111C81.1114 35.2442 81.4377 35.4607 82.0631 35.4607C83.2051 35.4607 85.9786 34.5404 90.3836 32.6726C91.4984 32.1853 92.4501 31.7793 93.2931 31.4545C93.7553 31.2379 94.2176 31.0755 94.707 30.9672C95.1421 30.9943 95.4684 31.1026 95.6043 31.3191C95.7403 31.5086 95.8219 31.6981 95.8219 31.9147C95.8219 32.1041 95.7675 32.2666 95.6859 32.429C95.5499 32.6997 95.0605 33.0516 94.272 33.4847C93.4834 33.9178 92.1782 34.5133 90.3836 35.2983C86.6584 36.9225 83.9393 37.7075 82.2534 37.7075C81.8728 37.7075 81.4921 37.6533 81.1114 37.5451C80.0238 37.2473 79.1808 36.5435 78.7458 35.6502C78.5826 35.3524 78.4467 35.0818 78.3107 34.8923C78.2563 34.784 78.1747 34.6757 78.1204 34.5674C78.0932 34.405 77.9028 34.2967 77.7397 34.3238C77.359 34.3238 76.7336 34.6216 75.8635 35.19C74.7487 35.8668 74.0417 36.2457 73.7154 36.2999C73.5251 36.354 73.3075 36.3811 73.09 36.3811C72.6821 36.3811 72.3014 36.1916 72.0567 35.8938C71.7848 35.6502 71.6217 35.3254 71.6217 34.9735C71.6217 34.8381 71.6489 34.6757 71.7032 34.5404C71.812 33.999 72.2471 33.241 72.954 32.2395C73.3347 31.7522 73.5251 31.4003 73.5251 31.1838C73.5251 31.0484 73.4163 30.9672 73.1988 30.9672C72.7637 30.9672 71.7576 31.4815 70.1533 32.5372C68.4675 33.6471 66.836 34.8652 65.3133 36.1375C64.6607 36.6788 64.0625 37.1661 63.5459 37.5721C63.2196 37.8428 62.8933 38.0864 62.5126 38.303C62.3223 38.3842 62.1319 38.4383 61.9416 38.4654C61.7241 38.4925 61.5065 38.5195 61.2618 38.5195C60.9899 38.5195 60.7452 38.4925 60.4733 38.4383C60.2014 38.4113 60.011 38.2759 59.8479 38.1406Z" fill="white"></path><path d="M98.0788 44.1499C97.3718 43.9063 96.9639 43.5815 96.8824 43.1484C96.828 42.8777 96.7736 42.6341 96.7464 42.3634C96.7736 41.6866 97.0999 41.064 97.6437 40.5768C98.0244 40.1978 98.5682 39.9813 99.1392 39.9542C99.248 39.9542 99.3296 39.9542 99.4111 39.9813C99.9278 40.0354 100.417 40.3061 100.689 40.6851C100.907 40.9828 101.015 41.3077 101.043 41.6325C101.015 42.0385 100.907 42.4175 100.689 42.7694C100.336 43.392 99.955 43.771 99.5471 43.9605C99.248 44.1229 98.8945 44.2041 98.5682 44.2311C98.4051 44.2311 98.2419 44.2041 98.0788 44.1499Z" fill="white"></path><path d="M103.354 46.126C102.538 45.6929 102.103 45.1515 102.103 44.5019C102.103 44.177 102.185 43.8522 102.348 43.5544C102.511 42.8506 106.861 39.2775 115.4 32.8621C122.741 27.3129 127.88 23.3608 130.844 20.9516C133.808 18.5425 135.902 16.6747 137.071 15.3483C138.838 13.3993 139.736 11.8834 139.736 10.8548C139.736 10.557 139.654 10.2863 139.491 10.0156C139.083 9.63668 138.43 9.33892 137.506 9.1765C136.636 9.01409 135.739 8.93288 134.841 8.93288C134.406 8.93288 133.917 8.95995 133.427 8.98702C130.164 9.28478 126.956 9.93444 123.856 10.8819C120.675 11.8564 118.336 12.9121 116.895 14.0219C116.705 14.1572 116.514 14.2926 116.351 14.4009C116.242 14.4821 116.079 14.5633 115.943 14.5904C115.889 14.6174 115.835 14.6174 115.753 14.6174C115.535 14.6174 115.345 14.5362 115.182 14.4009C114.937 14.2114 114.774 13.9678 114.72 13.6971C114.693 13.5888 114.693 13.4805 114.693 13.3722C114.693 12.3707 115.835 11.3691 118.146 10.3946C121.055 9.12236 124.101 8.14787 127.255 7.47114C130.219 6.87562 132.639 6.57786 134.461 6.57786C135.113 6.57786 135.793 6.60493 136.445 6.7132C139.056 7.03803 140.687 8.17494 141.286 10.151C141.476 10.6382 141.557 11.1526 141.557 11.6398C141.557 12.2895 141.394 12.9391 141.122 13.5347C140.606 14.7798 139.872 15.9438 138.92 16.9724C137.859 18.1906 136.146 19.7876 133.835 21.7908C132.149 23.2796 130.137 24.9308 127.826 26.7444C125.515 28.5581 122.061 31.2109 117.439 34.7028C111.375 39.2775 107.976 41.9303 107.188 42.6341C107.025 42.7965 106.916 43.013 106.861 43.2296C106.861 43.392 106.997 43.4732 107.297 43.4732C107.65 43.4191 108.004 43.3649 108.33 43.2837C108.928 43.1484 109.608 43.0131 110.396 42.8506C114.883 41.9032 119.016 41.0911 122.85 40.4685C126.657 39.8459 129.131 39.5211 130.246 39.5211H130.518C131.633 39.7377 132.176 40.1166 132.176 40.7122C132.176 40.7934 132.176 40.8746 132.149 40.9558C132.122 41.1723 131.932 41.3077 131.578 41.416C130.953 41.5513 130.327 41.6596 129.675 41.6867C128.179 41.8491 125.841 42.228 122.605 42.8236C119.369 43.4191 116.052 44.0958 112.68 44.8538C110.288 45.3951 108.466 45.7741 107.242 45.9907C106.372 46.1801 105.475 46.2884 104.577 46.3155C104.17 46.4238 103.734 46.3155 103.354 46.126Z" fill="white"></path><path d="M134.461 39.9001C134.379 39.9001 134.297 39.873 134.243 39.873C134.134 39.8459 134.026 39.8189 133.917 39.8189C133.563 39.7106 133.237 39.5211 132.965 39.3045C132.639 39.0609 132.367 38.7902 132.149 38.4654C131.986 38.1676 131.905 37.8428 131.905 37.518C131.905 36.6788 132.34 35.6231 133.21 34.3509C134.107 33.1328 135.113 31.9688 136.228 30.9131C137.234 29.8844 138.322 28.937 139.518 28.0708C140.851 27.2046 142.101 26.7715 143.243 26.7715C144.304 26.7986 145.31 27.1505 146.044 27.8272C146.18 27.9625 146.343 28.0979 146.479 28.2332C146.615 28.3686 146.724 28.5039 146.86 28.6393C147.05 28.91 147.186 29.2077 147.322 29.5055C147.485 29.8844 147.621 30.2634 147.757 30.6153C147.866 30.886 147.92 31.1567 147.947 31.4274C147.92 31.6981 147.866 31.9417 147.757 32.1853C147.648 32.5643 147.485 32.9974 147.322 33.4305C147.132 33.8907 146.969 34.3238 146.833 34.7569C146.724 35.0817 146.642 35.4066 146.615 35.7314C146.588 35.8397 146.588 35.948 146.588 36.0292C146.588 36.2999 146.642 36.5435 146.805 36.76C146.996 37.0307 147.349 37.1661 147.866 37.1661C148.6 37.0849 149.307 36.9224 149.987 36.6788C150.911 36.3811 151.809 36.0292 152.679 35.6231C153.576 35.163 154.637 34.5674 155.833 33.8366C156.839 33.214 157.818 32.5643 158.742 31.8334C159.422 31.292 159.884 30.9672 160.129 30.886C160.292 30.8319 160.455 30.8048 160.619 30.7777C160.89 30.7777 161.135 30.886 161.326 31.0484C161.543 31.1838 161.706 31.3733 161.788 31.5898C161.815 31.7252 161.842 31.8605 161.869 31.9958C161.869 32.2124 161.815 32.4019 161.679 32.5914C161.19 33.2952 159.667 34.4862 157.111 36.1645C153.63 38.3842 150.775 39.467 148.6 39.467H148.247C146.071 39.1963 144.63 38.0594 143.896 36.0292C143.842 35.7585 143.733 35.4878 143.543 35.2712C143.461 35.19 143.352 35.1359 143.216 35.1359C143.08 35.1359 142.944 35.163 142.836 35.2171C142.754 35.2712 142.428 35.4878 141.884 35.8397C141.34 36.1916 140.715 36.6247 139.98 37.139C139.246 37.6262 138.567 38.0864 137.941 38.4925C137.506 38.7902 137.071 39.0609 136.609 39.2775C136.255 39.4399 135.902 39.5752 135.521 39.6835C135.276 39.7647 135.004 39.8189 134.733 39.8189C134.569 39.9542 134.515 39.9271 134.461 39.9001ZM138.811 34.6757C141.068 33.1869 142.591 32.1312 143.325 31.5086C144.086 30.886 144.467 30.4258 144.467 30.101V30.0198C144.413 29.8032 144.222 29.6679 143.978 29.695C143.597 29.722 143.243 29.8303 142.917 29.9927C142.02 30.4258 140.987 31.1567 139.817 32.2124C139.056 32.8621 138.376 33.5659 137.724 34.3238C137.153 35.0005 136.853 35.4066 136.853 35.569C136.853 35.6231 136.881 35.6502 136.935 35.6502H136.962C137.18 35.6231 137.805 35.2983 138.811 34.6757Z" fill="white"></path><path d="M152.597 45.2327C152.434 45.1244 152.298 44.962 152.244 44.7725C152.216 44.6372 152.216 44.556 152.216 44.5289C152.244 44.1499 152.352 43.7439 152.543 43.392C152.787 42.8506 153.168 42.0927 153.739 41.1182C154.31 40.1437 155.099 38.8444 156.105 37.2202C161.325 28.7476 166.628 20.6268 171.984 12.9121C172.175 12.6143 172.365 12.3165 172.583 12.0188C172.936 11.5045 173.235 11.0713 173.507 10.6924C173.779 10.3134 173.942 10.0698 173.997 9.93444C174.432 9.31185 174.975 9.01408 175.628 9.01408C176.036 8.98701 176.444 9.14943 176.661 9.44719C176.879 9.71788 176.988 10.0156 176.988 10.3405C176.988 10.4758 176.988 10.6382 176.96 10.7736C176.716 11.2067 176.471 11.6398 176.172 12.0458C175.71 12.7767 175.139 13.6159 174.486 14.5633C173.29 16.2957 171.685 18.6507 169.7 21.6283C167.715 24.606 166.247 26.8527 165.241 28.4227C164.833 29.0995 164.643 29.5596 164.643 29.7762C164.643 29.9115 164.697 29.9927 164.833 29.9927C165.051 29.9115 165.241 29.7762 165.404 29.6408C165.758 29.3972 166.166 29.1265 166.628 28.8017C170.081 26.176 172.61 24.8496 174.241 24.8496C174.377 24.8496 174.513 24.8496 174.622 24.8767C175.084 24.9308 175.546 25.0932 175.927 25.3098C176.335 25.5263 176.716 25.8241 176.988 26.176C177.287 26.6362 177.45 27.1505 177.45 27.6648V27.9896C177.368 28.6393 177.205 29.2889 176.906 29.9115C176.009 31.7252 174.812 33.4035 173.344 34.9193C171.93 36.4623 170.271 37.8157 168.395 38.9256C167.634 39.3587 166.791 39.7377 165.948 40.0354C165.241 40.252 164.48 40.3873 163.691 40.3603C163.256 40.3603 162.821 40.3332 162.413 40.279C161.978 40.1978 161.57 40.0354 161.19 39.873C161.162 39.8459 161.108 39.8459 161.081 39.8459C160.673 39.6294 160.238 39.5211 159.776 39.467C159.449 39.467 159.069 39.6835 158.661 40.1437C158.253 40.6039 157.627 41.3889 156.757 42.5258C156.73 42.5799 156.703 42.6341 156.649 42.6882C156.159 43.3108 155.724 43.8522 155.316 44.3124C155.072 44.6101 154.827 44.9079 154.555 45.1786C154.31 45.3681 154.011 45.4763 153.658 45.4763H153.549C153.223 45.5846 152.869 45.4493 152.597 45.2327ZM164.833 38.0594C166.709 37.1932 168.64 35.7585 170.625 33.8095C172.583 31.8605 173.942 30.0198 174.676 28.2874C174.758 28.0708 174.812 27.8272 174.812 27.5836C174.812 27.2317 174.649 27.0693 174.323 27.0693C173.725 27.0693 172.61 27.6106 170.924 28.7205C170.027 29.3431 168.939 30.1822 167.634 31.265C166.329 32.3478 165.132 33.4035 164.045 34.4321C162.957 35.4607 162.25 36.2187 161.978 36.6518C161.761 37.0037 161.652 37.3826 161.625 37.7616C161.625 37.9782 161.679 38.1947 161.815 38.3842C161.896 38.4654 161.978 38.5466 162.06 38.6008C162.141 38.6549 162.223 38.6549 162.332 38.6549H162.903C163.555 38.5466 164.208 38.3301 164.833 38.0594Z" fill="white"></path><path d="M182.072 39.9001C180.414 39.5482 179.027 38.5466 178.32 37.1932C177.966 36.6518 177.776 36.0292 177.776 35.3795C177.803 34.5404 178.048 33.7283 178.51 32.9974C179.163 31.9417 179.951 30.9402 180.903 30.074C181.773 29.2077 182.752 28.4498 183.867 27.8543C184.302 27.6377 184.791 27.5294 185.281 27.5294C185.689 27.5294 186.069 27.6377 186.423 27.8001C187.184 28.1791 187.674 28.8558 187.918 29.8303C187.946 29.9657 187.946 30.101 187.946 30.2364C187.946 30.6153 187.891 30.9672 187.755 31.3462C187.619 31.8605 187.375 32.3748 187.048 32.8079C186.042 34.1885 184.492 34.8652 182.453 34.8652C181.936 34.8381 181.393 34.8923 180.903 35.0276C180.604 35.1359 180.359 35.3525 180.223 35.6231C180.087 35.8668 180.033 36.1375 180.006 36.4082C180.006 36.9495 180.332 37.3285 180.985 37.5992C181.964 37.8699 182.97 37.9782 184.003 37.9782C186.912 37.9782 190.774 37.1932 195.586 35.6231C197.191 35.0818 198.958 34.378 200.916 33.5659C202.874 32.7267 204.614 31.9688 206.137 31.2921C206.436 31.1567 206.762 31.1026 207.088 31.0755C207.306 31.0755 207.523 31.1297 207.686 31.265C207.986 31.5086 208.149 31.8605 208.149 32.2124V32.2936C208.149 32.6726 207.931 33.0516 207.55 33.2411C206.354 33.8366 204.886 34.5133 203.173 35.2442C201.46 36.0021 199.774 36.6788 198.142 37.2744C196.81 37.7616 195.314 38.2489 193.683 38.709C192.052 39.1692 190.638 39.5211 189.468 39.7377C188.381 39.9542 187.293 40.0896 186.178 40.1437C185.335 40.1708 184.791 40.1708 184.547 40.1708C183.785 40.1437 182.915 40.0625 182.072 39.9001ZM184.275 31.8335C184.411 31.7522 184.52 31.644 184.628 31.5086C184.737 31.3733 184.846 31.2379 184.955 31.1026C185.036 30.9943 185.091 30.886 185.091 30.7778C185.091 30.7236 185.063 30.6695 184.982 30.6424H184.955C184.873 30.6424 184.819 30.6695 184.737 30.6965C184.465 30.8048 184.22 30.9402 184.003 31.1297C183.649 31.4274 183.459 31.671 183.459 31.8605V31.9147C183.486 31.9688 183.568 32.0229 183.649 31.9959C183.867 32.0229 184.084 31.9688 184.275 31.8335Z" fill="white"></path><path d="M212.336 40.7933C210.378 40.4414 208.611 39.6023 207.197 38.3842C206.816 38.0052 206.49 37.545 206.273 37.0578C205.919 36.1916 205.729 35.2983 205.729 34.3779C205.729 33.5929 205.838 32.835 206.001 32.077C207.088 28.0979 209.318 23.8209 212.69 19.2733C216.061 14.7257 219.732 11.0713 223.675 8.31026C225.143 7.30869 226.394 6.82145 227.455 6.82145C227.726 6.82145 227.998 6.87559 228.27 6.95679C228.814 7.11921 229.276 7.47111 229.575 7.90422C229.902 8.33732 230.065 8.85164 230.065 9.36596V9.5013C229.847 10.8006 228.733 12.6955 226.666 15.1317C224.463 17.7304 222.071 20.1666 219.46 22.4404C216.714 24.8766 214.158 26.7444 211.792 28.0167C211.303 28.2332 210.868 28.531 210.46 28.8558C210.161 29.1536 209.916 29.4784 209.78 29.8303C208.883 31.7522 208.421 33.1598 208.394 34.0531C208.366 34.9464 208.339 35.4607 208.339 35.569C208.339 37.0036 208.693 37.9781 209.372 38.5466C209.862 38.8985 210.596 39.0609 211.575 39.0609C211.792 39.0609 212.01 39.0609 212.282 39.0338C213.777 38.9256 215.218 38.5737 216.605 38.0594C219.08 37.1119 222.016 35.596 225.361 33.5659C225.497 33.4576 225.741 33.3222 226.041 33.1057C226.367 32.8891 226.693 32.6996 227.019 32.4831C227.346 32.2665 227.59 32.1312 227.726 32.0229C228.134 31.7522 228.569 31.4815 229.032 31.265C229.276 31.1296 229.548 31.0484 229.82 31.0213H229.902C230.609 31.0213 231.017 31.3191 231.098 31.8876V31.9417C231.071 32.2124 230.935 32.456 230.745 32.6455C230.337 33.0515 229.875 33.4305 229.358 33.7553C229.249 33.8365 229.004 33.999 228.678 34.1884C228.352 34.405 227.998 34.6216 227.672 34.8381C227.319 35.0547 227.074 35.2171 226.911 35.3254C222.723 37.8699 219.379 39.494 216.904 40.252C216.17 40.4685 215.409 40.6039 214.647 40.7121C214.049 40.7933 213.424 40.8475 212.798 40.8745C212.69 40.8204 212.527 40.8204 212.336 40.7933ZM216.143 22.1156C217.965 20.5726 219.705 18.9755 221.364 17.2972C222.886 15.7814 224.3 14.1843 225.633 12.5331C226.72 11.1525 227.264 10.2322 227.264 9.79906V9.66372C227.21 9.60958 227.101 9.58251 227.019 9.58251C226.639 9.58251 225.959 9.96148 224.98 10.6923C223.43 11.8834 221.962 13.1827 220.602 14.5362C219.025 16.0791 217.557 17.7304 216.225 19.4357C215.083 20.8975 214.348 21.9261 213.995 22.4945C213.641 23.063 213.451 23.442 213.451 23.6314C213.451 23.6856 213.451 23.7127 213.478 23.7668C213.505 23.8209 213.56 23.8751 213.614 23.848C213.886 23.848 214.729 23.2795 216.143 22.1156Z" fill="white"></path><path d="M229.168 40.1978C228.542 39.9813 227.998 39.6835 227.536 39.2504C227.047 38.8444 226.666 38.3571 226.394 37.8157C226.231 37.4097 226.149 36.9766 226.149 36.5706C226.149 35.4878 226.584 34.2426 227.482 32.835C228.189 31.644 228.76 30.886 229.168 30.5341C229.575 30.1822 229.956 30.0198 230.31 30.0198C230.446 30.0198 230.582 30.0469 230.69 30.0739C231.316 30.2905 231.642 30.7236 231.642 31.4003C231.642 31.671 231.56 31.9147 231.452 32.1583C231.234 32.5643 230.989 32.9704 230.717 33.3764C229.766 34.8381 229.222 35.8397 229.032 36.3269C228.868 36.6788 228.787 37.0307 228.76 37.4097C228.787 37.7616 229.032 38.0864 229.358 38.2759C229.494 38.3301 229.63 38.3571 229.793 38.3301C229.983 38.3301 230.255 38.3301 230.636 38.303C231.968 38.2489 233.681 37.8699 235.775 37.1932C237.869 36.5164 240.887 35.3524 244.857 33.7283C246.434 33.0516 247.821 32.4831 249.017 31.9688C250.214 31.4815 250.921 31.1838 251.192 31.1026C251.519 31.0214 251.845 30.9672 252.171 30.9402C252.906 30.9402 253.259 31.265 253.259 31.9147C253.259 32.0771 253.232 32.2395 253.15 32.4019C253.041 32.5643 252.906 32.6997 252.77 32.8079C252.498 32.9704 251.546 33.4035 249.942 34.1073C248.337 34.8111 246.597 35.569 244.694 36.354C242.79 37.139 241.268 37.7616 240.071 38.2218C236.183 39.6835 233.137 40.3873 230.962 40.3873C230.364 40.4144 229.766 40.3332 229.168 40.1978ZM232.92 26.5008C232.757 26.3384 232.648 26.1218 232.648 25.9053C232.675 25.6075 232.784 25.3098 232.974 25.0391C233.328 24.4165 233.681 24.0104 234.008 23.8751C234.225 23.7668 234.497 23.6856 234.742 23.6585C235.041 23.6585 235.313 23.7668 235.53 23.9563C235.748 24.1458 235.857 24.3894 235.857 24.6601C235.857 25.1473 235.53 25.7158 234.878 26.3384C234.47 26.6632 234.116 26.8256 233.79 26.8256C233.409 26.8527 233.137 26.7174 232.92 26.5008Z" fill="white"></path><path d="M247.929 38.6549C247.549 38.3842 247.304 37.9782 247.304 37.5451C247.304 37.4639 247.304 37.3827 247.331 37.3014C247.413 36.7871 247.848 35.975 248.609 34.8381C249.207 33.9719 250.05 32.8079 251.165 31.3733C252.28 29.9386 253.341 28.6122 254.374 27.367C255.026 26.5279 255.761 25.7429 256.522 24.9849C256.767 24.7684 257.093 24.6601 257.446 24.6601C257.582 24.6601 257.718 24.6872 257.827 24.7142C258.289 24.8496 258.616 25.2015 258.67 25.6075C258.697 25.6617 258.697 25.7158 258.697 25.797C258.697 25.9594 258.643 26.1218 258.588 26.2843C258.425 26.6362 258.208 26.9881 257.963 27.3129C257.637 27.746 257.174 28.3415 256.522 29.0995C255.38 30.48 254.564 31.4545 254.156 32.0229C253.721 32.5643 253.531 32.9162 253.531 33.0245C253.531 33.1598 253.585 33.2411 253.721 33.2411C253.857 33.2411 254.156 33.1057 254.564 32.8621C254.999 32.6185 255.625 32.2124 256.522 31.644C257.664 30.886 258.561 30.3446 259.159 29.9657C259.567 29.695 260.03 29.4784 260.492 29.2889C260.737 29.1807 261.008 29.1536 261.28 29.1265C262.042 29.0995 262.722 29.5326 262.912 30.1822C262.966 30.3446 262.993 30.5071 262.993 30.6695V30.859C262.939 31.2921 262.83 31.7252 262.722 32.1583C262.586 32.6997 262.477 33.0786 262.422 33.3223C262.368 33.5117 262.341 33.7283 262.341 33.9449V34.0802C262.368 34.2426 262.422 34.405 262.477 34.5404C262.721 34.9193 263.265 35.0818 264.163 35.0818C264.38 35.0818 264.625 35.0818 264.897 35.0547C266.719 34.8381 268.513 34.4592 270.226 33.9178C272.402 33.2952 274.495 32.5373 276.562 31.671C277.405 31.3191 278.057 31.1567 278.547 31.1567C278.683 31.1567 278.846 31.1838 278.982 31.2109C279.335 31.2921 279.58 31.5898 279.58 31.9147V32.0771C279.526 32.4831 279.227 32.8621 278.683 33.1869C277.16 34.0261 275.012 34.8652 272.266 35.7044C269.519 36.5435 267.262 37.0307 265.495 37.1932H265.142C262.586 37.1932 260.9 36.1375 260.084 34.0261C260.002 33.7283 259.866 33.4576 259.676 33.1869C259.567 33.0786 259.404 32.9974 259.241 32.9974C259.159 32.9974 259.105 32.9974 259.023 33.0245C258.752 33.0516 256.549 34.4862 252.443 37.3556C251.709 37.8428 251.138 38.2218 250.73 38.4654C250.431 38.6549 250.105 38.8444 249.778 38.9797C249.561 39.0609 249.289 39.1151 249.044 39.1151C248.854 39.1151 248.636 39.088 248.473 39.0068C248.229 38.8985 248.065 38.7903 247.929 38.6549Z" fill="white"></path></svg>